<svg width="13" height="13" viewBox="0 0 13 13" fill="none" xmlns="http://www.w3.org/2000/svg">
<path d="M8.16337 10.7141V9.69365C8.16337 9.15239 7.94835 8.6333 7.56563 8.25057C7.1829 7.86785 6.66381 7.65283 6.12255 7.65283H3.06132C2.52007 7.65283 2.00098 7.86785 1.61825 8.25057C1.23552 8.6333 1.02051 9.15239 1.02051 9.69365V10.7141" stroke="#C67C4E" stroke-width="1.02041" stroke-linecap="round" stroke-linejoin="round"/>
<path d="M8.16333 1.5957C8.60096 1.70916 8.98853 1.96472 9.26521 2.32227C9.54188 2.67982 9.692 3.11912 9.692 3.57121C9.692 4.02331 9.54188 4.46261 9.26521 4.82016C8.98853 5.17771 8.60096 5.43327 8.16333 5.54672" stroke="#C67C4E" stroke-width="1.02041" stroke-linecap="round" stroke-linejoin="round"/>
<path d="M11.2245 10.7141V9.69373C11.2241 9.24155 11.0736 8.80229 10.7966 8.44491C10.5195 8.08753 10.1317 7.83228 9.69385 7.71924" stroke="#C67C4E" stroke-width="1.02041" stroke-linecap="round" stroke-linejoin="round"/>
<path d="M4.59184 5.6124C5.71895 5.6124 6.63266 4.69869 6.63266 3.57158C6.63266 2.44447 5.71895 1.53076 4.59184 1.53076C3.46473 1.53076 2.55103 2.44447 2.55103 3.57158C2.55103 4.69869 3.46473 5.6124 4.59184 5.6124Z" stroke="#C67C4E" stroke-width="1.02041" stroke-linecap="round" stroke-linejoin="round"/>
</svg>
