<svg width="13" height="13" viewBox="0 0 13 13" fill="none" xmlns="http://www.w3.org/2000/svg">
<path d="M8.16337 10.7145V9.69414C8.16337 9.15288 7.94835 8.63379 7.56563 8.25106C7.1829 7.86833 6.66381 7.65332 6.12255 7.65332H3.06132C2.52007 7.65332 2.00098 7.86833 1.61825 8.25106C1.23552 8.63379 1.02051 9.15288 1.02051 9.69414V10.7145" stroke="#C67C4E" stroke-width="1.02041" stroke-linecap="round" stroke-linejoin="round"/>
<path d="M8.16333 1.5957C8.60096 1.70916 8.98853 1.96472 9.26521 2.32227C9.54188 2.67982 9.692 3.11912 9.692 3.57121C9.692 4.02331 9.54188 4.46261 9.26521 4.82016C8.98853 5.17771 8.60096 5.43327 8.16333 5.54672" stroke="#C67C4E" stroke-width="1.02041" stroke-linecap="round" stroke-linejoin="round"/>
<path d="M11.2245 10.7146V9.69422C11.2241 9.24204 11.0736 8.80277 10.7966 8.4454C10.5195 8.08802 10.1317 7.83277 9.69385 7.71973" stroke="#C67C4E" stroke-width="1.02041" stroke-linecap="round" stroke-linejoin="round"/>
<path d="M4.59184 5.61191C5.71895 5.61191 6.63266 4.6982 6.63266 3.57109C6.63266 2.44398 5.71895 1.53027 4.59184 1.53027C3.46473 1.53027 2.55103 2.44398 2.55103 3.57109C2.55103 4.6982 3.46473 5.61191 4.59184 5.61191Z" stroke="#C67C4E" stroke-width="1.02041" stroke-linecap="round" stroke-linejoin="round"/>
</svg>
