<svg width="20" height="20" viewBox="0 0 20 20" fill="none" xmlns="http://www.w3.org/2000/svg">
<path d="M1.66577 7.91221C1.66579 6.98537 1.94695 6.08034 2.47212 5.31665C2.99729 4.55296 3.74176 3.96653 4.60721 3.63483C5.47266 3.30312 6.41836 3.24174 7.31943 3.45879C8.22049 3.67584 9.03452 4.16112 9.654 4.85051C9.69764 4.89717 9.75039 4.93436 9.80899 4.95979C9.86758 4.98522 9.93078 4.99834 9.99466 4.99834C10.0585 4.99834 10.1217 4.98522 10.1803 4.95979C10.2389 4.93436 10.2917 4.89717 10.3353 4.85051C10.9528 4.15663 11.7671 3.66729 12.6696 3.4476C13.5721 3.22791 14.5201 3.2883 15.3875 3.62074C16.2549 3.95318 17.0004 4.54189 17.5249 5.30852C18.0494 6.07515 18.328 6.98334 18.3235 7.91221C18.3235 9.81953 17.0742 11.2438 15.8249 12.4931L11.2507 16.9182C11.0955 17.0965 10.9041 17.2397 10.6893 17.3383C10.4745 17.4369 10.2412 17.4886 10.0049 17.4901C9.76856 17.4916 9.53461 17.4428 9.31859 17.3469C9.10257 17.2511 8.90943 17.1103 8.75199 16.9341L4.16444 12.4931C2.9151 11.2438 1.66577 9.82786 1.66577 7.91221Z" stroke="black" stroke-opacity="0.7" stroke-width="1.66578" stroke-linecap="round" stroke-linejoin="round"/>
</svg>
