<svg width="24" height="24" viewBox="0 0 24 24" fill="none" xmlns="http://www.w3.org/2000/svg">
<path fill-rule="evenodd" clip-rule="evenodd" d="M12.5929 23.2579L12.5819 23.2599L12.5109 23.2949L12.4909 23.2989L12.4769 23.2949L12.4059 23.2599C12.3953 23.2566 12.3873 23.2583 12.3819 23.2649L12.3779 23.2749L12.3609 23.7029L12.3659 23.7229L12.3759 23.7359L12.4799 23.8099L12.4949 23.8139L12.5069 23.8099L12.6109 23.7359L12.6229 23.7199L12.6269 23.7029L12.6099 23.2759C12.6073 23.2653 12.6016 23.2593 12.5929 23.2579ZM12.8579 23.1449L12.8449 23.1469L12.6599 23.2399L12.6499 23.2499L12.6469 23.2609L12.6649 23.6909L12.6699 23.7029L12.6779 23.7099L12.8789 23.8029C12.8916 23.8063 12.9013 23.8036 12.9079 23.7949L12.9119 23.7809L12.8779 23.1669C12.8746 23.1549 12.8679 23.1476 12.8579 23.1449ZM12.1429 23.1469C12.1385 23.1443 12.1333 23.1434 12.1282 23.1445C12.1232 23.1456 12.1188 23.1487 12.1159 23.1529L12.1099 23.1669L12.0759 23.7809C12.0766 23.7929 12.0823 23.8009 12.0929 23.8049L12.1079 23.8029L12.3089 23.7099L12.3189 23.7019L12.3229 23.6909L12.3399 23.2609L12.3369 23.2489L12.3269 23.2389L12.1429 23.1469Z" fill="url(#paint0_linear_61_94)"/>
<path fill-rule="evenodd" clip-rule="evenodd" d="M10.5 2C9.1446 2.00012 7.80887 2.32436 6.60427 2.94569C5.39966 3.56702 4.3611 4.46742 3.57525 5.57175C2.78939 6.67609 2.27902 7.95235 2.08672 9.29404C1.89442 10.6357 2.02576 12.004 2.46979 13.2846C2.91382 14.5652 3.65766 15.7211 4.63925 16.6557C5.62084 17.5904 6.81171 18.2768 8.11252 18.6576C9.41333 19.0384 10.7864 19.1026 12.117 18.8449C13.4477 18.5872 14.6975 18.015 15.762 17.176L19.414 20.828C19.6026 21.0102 19.8552 21.111 20.1174 21.1087C20.3796 21.1064 20.6304 21.0012 20.8158 20.8158C21.0012 20.6304 21.1064 20.3796 21.1087 20.1174C21.111 19.8552 21.0102 19.6026 20.828 19.414L17.176 15.762C18.164 14.5086 18.7792 13.0024 18.9511 11.4157C19.123 9.82905 18.8448 8.22602 18.1482 6.79009C17.4517 5.35417 16.3649 4.14336 15.0123 3.29623C13.6597 2.44911 12.096 1.99989 10.5 2ZM4.00001 10.5C4.00001 8.77609 4.68483 7.12279 5.90382 5.90381C7.1228 4.68482 8.7761 4 10.5 4C12.2239 4 13.8772 4.68482 15.0962 5.90381C16.3152 7.12279 17 8.77609 17 10.5C17 12.2239 16.3152 13.8772 15.0962 15.0962C13.8772 16.3152 12.2239 17 10.5 17C8.7761 17 7.1228 16.3152 5.90382 15.0962C4.68483 13.8772 4.00001 12.2239 4.00001 10.5Z" fill="url(#paint1_linear_61_94)"/>
<defs>
<linearGradient id="paint0_linear_61_94" x1="12.9119" y1="23.479" x2="12.0759" y2="23.479" gradientUnits="userSpaceOnUse">
<stop stop-color="#C67C4E"/>
<stop offset="1" stop-color="#C67C4E"/>
</linearGradient>
<linearGradient id="paint1_linear_61_94" x1="21.1087" y1="11.5544" x2="2.00073" y2="11.5544" gradientUnits="userSpaceOnUse">
<stop stop-color="#C67C4E"/>
<stop offset="1" stop-color="#C67C4E"/>
</linearGradient>
</defs>
</svg>
