<svg width="20" height="20" viewBox="0 0 20 20" fill="none" xmlns="http://www.w3.org/2000/svg">
<path d="M12.4934 17.4906V10.8275C12.4934 10.6066 12.4057 10.3948 12.2495 10.2386C12.0933 10.0824 11.8814 9.99463 11.6605 9.99463H8.32898C8.10809 9.99463 7.89624 10.0824 7.74004 10.2386C7.58384 10.3948 7.49609 10.6066 7.49609 10.8275V17.4906" fill="url(#paint0_linear_44_651)"/>
<path d="M12.4934 17.4906V10.8275C12.4934 10.6066 12.4057 10.3948 12.2495 10.2386C12.0933 10.0824 11.8814 9.99463 11.6605 9.99463H8.32898C8.10809 9.99463 7.89624 10.0824 7.74004 10.2386C7.58384 10.3948 7.49609 10.6066 7.49609 10.8275V17.4906" stroke="url(#paint1_linear_44_651)" stroke-width="1.66578" stroke-linecap="round" stroke-linejoin="round"/>
<path d="M2.49878 8.32903C2.49872 8.08672 2.55153 7.84731 2.65352 7.62751C2.75551 7.4077 2.90423 7.21279 3.0893 7.05638L8.91952 2.05905C9.22018 1.80494 9.60112 1.66553 9.99478 1.66553C10.3884 1.66553 10.7694 1.80494 11.07 2.05905L16.9003 7.05638C17.0853 7.21279 17.234 7.4077 17.336 7.62751C17.438 7.84731 17.4908 8.08672 17.4908 8.32903V15.825C17.4908 16.2668 17.3153 16.6905 17.0029 17.0029C16.6905 17.3153 16.2668 17.4908 15.825 17.4908H4.16456C3.72276 17.4908 3.29907 17.3153 2.98667 17.0029C2.67428 16.6905 2.49878 16.2668 2.49878 15.825V8.32903Z" fill="url(#paint2_linear_44_651)" stroke="url(#paint3_linear_44_651)" stroke-width="1.66578" stroke-linecap="round" stroke-linejoin="round"/>
<defs>
<linearGradient id="paint0_linear_44_651" x1="12.4934" y1="13.7426" x2="7.49609" y2="13.7426" gradientUnits="userSpaceOnUse">
<stop stop-color="#C67C4E"/>
<stop offset="1" stop-color="#C67C4E"/>
</linearGradient>
<linearGradient id="paint1_linear_44_651" x1="12.4934" y1="13.7426" x2="7.49609" y2="13.7426" gradientUnits="userSpaceOnUse">
<stop stop-color="#C67C4E"/>
<stop offset="1" stop-color="#C67C4E"/>
</linearGradient>
<linearGradient id="paint2_linear_44_651" x1="17.4908" y1="9.57817" x2="2.49878" y2="9.57817" gradientUnits="userSpaceOnUse">
<stop stop-color="#C67C4E"/>
<stop offset="1" stop-color="#C67C4E"/>
</linearGradient>
<linearGradient id="paint3_linear_44_651" x1="17.4908" y1="9.57817" x2="2.49878" y2="9.57817" gradientUnits="userSpaceOnUse">
<stop stop-color="#C67C4E"/>
<stop offset="1" stop-color="#C67C4E"/>
</linearGradient>
</defs>
</svg>
