<svg width="20" height="20" viewBox="0 0 20 20" fill="none" xmlns="http://www.w3.org/2000/svg">
<g clip-path="url(#clip0_77_344)">
<path d="M12.4934 17.4905V13.3261C12.4934 13.1052 12.4057 12.8933 12.2495 12.7371C12.0933 12.5809 11.8814 12.4932 11.6605 12.4932H8.32898C8.10809 12.4932 7.89624 12.5809 7.74004 12.7371C7.58384 12.8933 7.49609 13.1052 7.49609 13.3261V17.4905" stroke="black" stroke-width="1.66578" stroke-linecap="round" stroke-linejoin="round"/>
<path d="M14.8038 8.58732C14.6302 8.42111 14.3991 8.32833 14.1587 8.32833C13.9184 8.32833 13.6873 8.42111 13.5137 8.58732C13.1264 8.95672 12.6117 9.16281 12.0765 9.16281C11.5413 9.16281 11.0266 8.95672 10.6394 8.58732C10.4658 8.42135 10.2349 8.32872 9.9947 8.32872C9.75454 8.32872 9.52363 8.42135 9.35004 8.58732C8.96271 8.95696 8.44788 9.1632 7.91248 9.1632C7.37707 9.1632 6.86224 8.95696 6.47491 8.58732C6.30128 8.42111 6.0702 8.32833 5.82984 8.32833C5.58948 8.32833 5.35839 8.42111 5.18477 8.58732C4.81067 8.94431 4.31712 9.14932 3.80019 9.16247C3.28326 9.17561 2.77994 8.99594 2.38818 8.65843C1.99642 8.32092 1.74427 7.84971 1.68079 7.33652C1.61732 6.82334 1.74706 6.30489 2.04478 5.8821L4.45099 2.39729C4.60367 2.172 4.80921 1.98756 5.04965 1.86008C5.2901 1.73259 5.55811 1.66597 5.83026 1.66602H14.1591C14.4305 1.66591 14.6978 1.7321 14.9377 1.85882C15.1776 1.98554 15.383 2.16896 15.5359 2.39313L17.9471 5.8846C18.2449 6.30772 18.3745 6.82656 18.3106 7.34002C18.2467 7.85347 17.994 8.32475 17.6016 8.66202C17.2092 8.99929 16.7053 9.1784 16.1881 9.16444C15.6709 9.15047 15.1774 8.94444 14.8038 8.58649" stroke="black" stroke-width="1.66578" stroke-linecap="round" stroke-linejoin="round"/>
<path d="M3.33154 9.12012V15.8249C3.33154 16.2667 3.50704 16.6904 3.81944 17.0028C4.13183 17.3151 4.55553 17.4906 4.99732 17.4906H14.992C15.4338 17.4906 15.8575 17.3151 16.1699 17.0028C16.4823 16.6904 16.6578 16.2667 16.6578 15.8249V9.12012" stroke="black" stroke-width="1.66578" stroke-linecap="round" stroke-linejoin="round"/>
</g>
<defs>
<clipPath id="clip0_77_344">
<rect width="19.9893" height="19.9893" fill="white"/>
</clipPath>
</defs>
</svg>
