<svg width="158" height="138" viewBox="0 0 158 138" fill="none" xmlns="http://www.w3.org/2000/svg">
<path d="M0 16C0 7.16344 7.16344 0 16 0H142C150.837 0 158 7.16344 158 16V122C158 130.837 150.837 138 142 138H16C7.16345 138 0 130.837 0 122V16Z" fill="url(#paint0_linear_110_454)"/>
<path d="M54 38C54 30.268 60.268 24 68 24H88C95.732 24 102 30.268 102 38V58C102 65.732 95.732 72 88 72H68C60.268 72 54 65.732 54 58V38Z" fill="white" fill-opacity="0.2"/>
<path d="M81 57V52C81 51.7348 80.8946 51.4804 80.7071 51.2929C80.5196 51.1054 80.2652 51 80 51H76C75.7348 51 75.4804 51.1054 75.2929 51.2929C75.1054 51.4804 75 51.7348 75 52V57" stroke="white" stroke-width="2" stroke-linecap="round" stroke-linejoin="round"/>
<path d="M83.774 46.31C83.5655 46.1104 83.288 45.999 82.9995 45.999C82.7109 45.999 82.4334 46.1104 82.225 46.31C81.76 46.7535 81.142 47.001 80.4995 47.001C79.8569 47.001 79.2389 46.7535 78.774 46.31C78.5655 46.1107 78.2883 45.9995 78 45.9995C77.7116 45.9995 77.4344 46.1107 77.226 46.31C76.7609 46.7538 76.1428 47.0014 75.5 47.0014C74.8571 47.0014 74.239 46.7538 73.774 46.31C73.5655 46.1104 73.288 45.999 72.9995 45.999C72.7109 45.999 72.4334 46.1104 72.225 46.31C71.7758 46.7386 71.1832 46.9848 70.5626 47.0005C69.9419 47.0163 69.3376 46.8006 68.8673 46.3954C68.3969 45.9901 68.0941 45.4244 68.0179 44.8082C67.9417 44.1921 68.0975 43.5696 68.455 43.062L71.344 38.878C71.5273 38.6075 71.774 38.3861 72.0627 38.233C72.3514 38.0799 72.6732 37.9999 73 38H83C83.3257 37.9999 83.6466 38.0793 83.9347 38.2315C84.2228 38.3836 84.4694 38.6039 84.653 38.873L87.548 43.065C87.9055 43.573 88.0611 44.196 87.9844 44.8124C87.9077 45.4289 87.6042 45.9947 87.1331 46.3997C86.662 46.8046 86.057 47.0197 85.436 47.0029C84.815 46.9861 84.2225 46.7388 83.774 46.309" stroke="white" stroke-width="2" stroke-linecap="round" stroke-linejoin="round"/>
<path d="M70 46.9502V55.0002C70 55.5306 70.2107 56.0393 70.5858 56.4144C70.9609 56.7895 71.4696 57.0002 72 57.0002H84C84.5304 57.0002 85.0391 56.7895 85.4142 56.4144C85.7893 56.0393 86 55.5306 86 55.0002V46.9502" stroke="white" stroke-width="2" stroke-linecap="round" stroke-linejoin="round"/>
<path d="M31.328 92.088C32.3733 92.088 33.2747 92.2 34.032 92.424C34.8 92.6373 35.3867 92.9467 35.792 93.352C36.208 93.7573 36.416 94.2533 36.416 94.84C36.416 95.4053 36.208 95.896 35.792 96.312C35.3867 96.7173 34.8 97.0267 34.032 97.24C33.2747 97.4533 32.3733 97.56 31.328 97.56C30.2933 97.56 29.392 97.4533 28.624 97.24C27.8667 97.0267 27.28 96.7173 26.864 96.312C26.448 95.896 26.24 95.4053 26.24 94.84C26.24 94.2533 26.448 93.7573 26.864 93.352C27.28 92.9467 27.8667 92.6373 28.624 92.424C29.392 92.2 30.2933 92.088 31.328 92.088ZM31.328 93.144C30.5707 93.144 29.9093 93.2133 29.344 93.352C28.7893 93.48 28.3573 93.672 28.048 93.928C27.7493 94.1733 27.6 94.4773 27.6 94.84C27.6 95.1813 27.7493 95.48 28.048 95.736C28.3573 95.9813 28.7893 96.1733 29.344 96.312C29.9093 96.44 30.5707 96.504 31.328 96.504C32.096 96.504 32.7573 96.44 33.312 96.312C33.8773 96.1733 34.3093 95.9813 34.608 95.736C34.9067 95.48 35.056 95.1813 35.056 94.84C35.056 94.4773 34.9067 94.1733 34.608 93.928C34.3093 93.672 33.8773 93.48 33.312 93.352C32.7573 93.2133 32.096 93.144 31.328 93.144ZM26.4 101.288H36.272V106.056H26.4V101.288ZM34.976 102.36H27.696V104.968H34.976V102.36ZM24.8 98.792H37.872V99.88H24.8V98.792ZM43.2788 92.456H44.3828V93.864C44.3828 94.7813 44.2121 95.64 43.8708 96.44C43.5401 97.24 43.0654 97.9387 42.4468 98.536C41.8388 99.1227 41.1294 99.5707 40.3188 99.88L39.6468 98.824C40.1908 98.6213 40.6814 98.3547 41.1188 98.024C41.5668 97.6827 41.9508 97.2933 42.2708 96.856C42.6014 96.4187 42.8521 95.944 43.0228 95.432C43.1934 94.92 43.2788 94.3973 43.2788 93.864V92.456ZM43.5188 92.456H44.6228V93.864C44.6228 94.3867 44.7081 94.888 44.8788 95.368C45.0601 95.848 45.3108 96.296 45.6308 96.712C45.9508 97.128 46.3294 97.496 46.7668 97.816C47.2148 98.136 47.7054 98.3867 48.2388 98.568L47.5828 99.624C46.7828 99.3253 46.0734 98.8987 45.4548 98.344C44.8468 97.7787 44.3721 97.112 44.0308 96.344C43.6894 95.576 43.5188 94.7493 43.5188 93.864V92.456ZM41.7108 101.208H51.3748V106.248H50.0468V102.296H41.7108V101.208ZM50.0468 91.768H51.3748V100.472H50.0468V91.768ZM69.4586 97.544H72.1146V98.648H69.4586V97.544ZM68.4826 91.768H69.8106V106.232H68.4826V91.768ZM59.2666 93.192H60.5786V102.152H59.2666V93.192ZM59.2666 101.464H60.4186C61.4746 101.464 62.5573 101.416 63.6666 101.32C64.7866 101.224 65.944 101.053 67.1386 100.808L67.2986 101.928C66.0613 102.173 64.8773 102.344 63.7466 102.44C62.6266 102.525 61.5173 102.568 60.4186 102.568H59.2666V101.464ZM77.3294 99.848H78.6734V105.8H77.3294V99.848ZM83.9214 91.784H85.2494V106.248H83.9214V91.784ZM73.4734 100.312L73.2974 99.208C74.2574 99.208 75.2707 99.2027 76.3374 99.192C77.404 99.1707 78.4814 99.1387 79.5694 99.096C80.6574 99.0427 81.7187 98.9627 82.7534 98.856L82.8334 99.864C81.788 99.992 80.7214 100.093 79.6334 100.168C78.5454 100.232 77.4787 100.275 76.4334 100.296C75.388 100.307 74.4014 100.312 73.4734 100.312ZM80.6254 101.528H84.2414V102.584H80.6254V101.528ZM74.6574 96.28H81.7614V97.368H74.6574V96.28ZM74.6574 92.536H75.9854V96.616H74.6574V92.536ZM94.0001 98.584H95.3121V100.792H94.0001V98.584ZM88.1281 97.8H101.2V98.872H88.1281V97.8ZM89.7121 100.312H99.5201V103.624H91.0401V105.32H89.7441V102.664H98.2241V101.32H89.7121V100.312ZM89.7441 105.048H99.9521V106.088H89.7441V105.048ZM93.9041 92.68H95.0561V93.112C95.0561 93.56 94.9548 93.976 94.7521 94.36C94.5601 94.744 94.2775 95.0907 93.9041 95.4C93.5415 95.7093 93.1148 95.9813 92.6241 96.216C92.1441 96.44 91.6161 96.632 91.0401 96.792C90.4748 96.9413 89.8828 97.0427 89.2641 97.096L88.8321 96.088C89.3655 96.0453 89.8775 95.9653 90.3681 95.848C90.8695 95.72 91.3335 95.5653 91.7601 95.384C92.1868 95.2027 92.5601 94.9947 92.8801 94.76C93.2001 94.5253 93.4508 94.2693 93.6321 93.992C93.8135 93.7147 93.9041 93.4213 93.9041 93.112V92.68ZM94.2721 92.68H95.4241V93.112C95.4241 93.4213 95.5148 93.72 95.6961 94.008C95.8775 94.2853 96.1281 94.5413 96.4481 94.776C96.7681 95 97.1415 95.2027 97.5681 95.384C97.9948 95.5653 98.4535 95.72 98.9441 95.848C99.4455 95.9653 99.9681 96.0453 100.512 96.088L100.08 97.096C99.4615 97.0427 98.8641 96.9413 98.2881 96.792C97.7228 96.632 97.1948 96.44 96.7041 96.216C96.2241 95.9813 95.7975 95.7093 95.4241 95.4C95.0615 95.0907 94.7788 94.744 94.5761 94.36C94.3735 93.976 94.2721 93.56 94.2721 93.112V92.68ZM89.3281 92.264H100.016V93.32H89.3281V92.264ZM103.327 101.672H104.271C105.156 101.672 106.02 101.651 106.863 101.608C107.706 101.555 108.612 101.448 109.583 101.288L109.711 102.376C108.708 102.557 107.775 102.675 106.911 102.728C106.058 102.771 105.178 102.792 104.271 102.792H103.327V101.672ZM103.295 93.336H108.703V98.424H104.607V102.088H103.327V97.336H107.423V94.44H103.295V93.336ZM113.855 91.768H115.119V106.248H113.855V91.768ZM111.407 97.48H114.191V98.568H111.407V97.48ZM110.575 92.088H111.807V105.496H110.575V92.088ZM120.782 99.224H122.094V103.544H120.782V99.224ZM126.126 99.224H127.454V103.544H126.126V99.224ZM117.566 103.288H130.686V104.392H117.566V103.288ZM124.094 92.68C125.118 92.68 126.024 92.8347 126.814 93.144C127.603 93.4533 128.222 93.8853 128.67 94.44C129.128 94.9947 129.358 95.6507 129.358 96.408C129.358 97.1547 129.128 97.8107 128.67 98.376C128.222 98.9307 127.603 99.3627 126.814 99.672C126.024 99.9707 125.118 100.12 124.094 100.12C123.08 100.12 122.174 99.9707 121.374 99.672C120.584 99.3627 119.966 98.9307 119.518 98.376C119.07 97.8107 118.846 97.1547 118.846 96.408C118.846 95.6507 119.07 94.9947 119.518 94.44C119.966 93.8853 120.584 93.4533 121.374 93.144C122.174 92.8347 123.08 92.68 124.094 92.68ZM124.094 93.736C123.326 93.736 122.643 93.848 122.046 94.072C121.448 94.296 120.979 94.6107 120.638 95.016C120.296 95.4107 120.126 95.8747 120.126 96.408C120.126 96.9413 120.296 97.4107 120.638 97.816C120.979 98.2107 121.448 98.52 122.046 98.744C122.643 98.968 123.326 99.08 124.094 99.08C124.872 99.08 125.56 98.968 126.158 98.744C126.755 98.52 127.224 98.2107 127.566 97.816C127.907 97.4107 128.078 96.9413 128.078 96.408C128.078 95.8747 127.907 95.4107 127.566 95.016C127.224 94.6107 126.755 94.296 126.158 94.072C125.56 93.848 124.872 93.736 124.094 93.736Z" fill="white" fill-opacity="0.8"/>
<defs>
<linearGradient id="paint0_linear_110_454" x1="79" y1="0" x2="79" y2="138" gradientUnits="userSpaceOnUse">
<stop stop-color="#C67C4E"/>
<stop offset="1" stop-color="#CEA387"/>
</linearGradient>
</defs>
</svg>
