<svg width="158" height="138" viewBox="0 0 158 138" fill="none" xmlns="http://www.w3.org/2000/svg">
<path d="M0 16C0 7.16344 7.16344 0 16 0H142C150.837 0 158 7.16344 158 16V122C158 130.837 150.837 138 142 138H16C7.16345 138 0 130.837 0 122V16Z" fill="url(#paint0_linear_110_353)"/>
<path d="M54 38C54 30.268 60.268 24 68 24H88C95.732 24 102 30.268 102 38V58C102 65.732 95.732 72 88 72H68C60.268 72 54 65.732 54 58V38Z" fill="white" fill-opacity="0.2"/>
<path d="M68 45.5C68 44.3872 68.3376 43.3006 68.9681 42.3837C69.5987 41.4668 70.4925 40.7627 71.5316 40.3644C72.5707 39.9662 73.7062 39.8925 74.788 40.1531C75.8699 40.4137 76.8472 40.9963 77.591 41.824C77.6434 41.8801 77.7067 41.9247 77.7771 41.9552C77.8474 41.9858 77.9233 42.0015 78 42.0015C78.0767 42.0015 78.1526 41.9858 78.2229 41.9552C78.2933 41.9247 78.3566 41.8801 78.409 41.824C79.1504 40.9909 80.128 40.4034 81.2116 40.1396C82.2952 39.8759 83.4335 39.9484 84.4749 40.3475C85.5163 40.7467 86.4114 41.4535 87.0411 42.3739C87.6708 43.2944 88.0053 44.3848 88 45.5C88 47.79 86.5 49.5 85 51L79.508 56.313C79.3217 56.527 79.0919 56.699 78.834 56.8173C78.5762 56.9357 78.296 56.9979 78.0123 56.9997C77.7285 57.0015 77.4476 56.9429 77.1883 56.8278C76.9289 56.7127 76.697 56.5437 76.508 56.332L71 51C69.5 49.5 68 47.8 68 45.5Z" stroke="white" stroke-width="2" stroke-linecap="round" stroke-linejoin="round"/>
<path d="M31.328 92.088C32.3733 92.088 33.2747 92.2 34.032 92.424C34.8 92.6373 35.3867 92.9467 35.792 93.352C36.208 93.7573 36.416 94.2533 36.416 94.84C36.416 95.4053 36.208 95.896 35.792 96.312C35.3867 96.7173 34.8 97.0267 34.032 97.24C33.2747 97.4533 32.3733 97.56 31.328 97.56C30.2933 97.56 29.392 97.4533 28.624 97.24C27.8667 97.0267 27.28 96.7173 26.864 96.312C26.448 95.896 26.24 95.4053 26.24 94.84C26.24 94.2533 26.448 93.7573 26.864 93.352C27.28 92.9467 27.8667 92.6373 28.624 92.424C29.392 92.2 30.2933 92.088 31.328 92.088ZM31.328 93.144C30.5707 93.144 29.9093 93.2133 29.344 93.352C28.7893 93.48 28.3573 93.672 28.048 93.928C27.7493 94.1733 27.6 94.4773 27.6 94.84C27.6 95.1813 27.7493 95.48 28.048 95.736C28.3573 95.9813 28.7893 96.1733 29.344 96.312C29.9093 96.44 30.5707 96.504 31.328 96.504C32.096 96.504 32.7573 96.44 33.312 96.312C33.8773 96.1733 34.3093 95.9813 34.608 95.736C34.9067 95.48 35.056 95.1813 35.056 94.84C35.056 94.4773 34.9067 94.1733 34.608 93.928C34.3093 93.672 33.8773 93.48 33.312 93.352C32.7573 93.2133 32.096 93.144 31.328 93.144ZM26.4 101.288H36.272V106.056H26.4V101.288ZM34.976 102.36H27.696V104.968H34.976V102.36ZM24.8 98.792H37.872V99.88H24.8V98.792ZM43.2788 92.456H44.3828V93.864C44.3828 94.7813 44.2121 95.64 43.8708 96.44C43.5401 97.24 43.0654 97.9387 42.4468 98.536C41.8388 99.1227 41.1294 99.5707 40.3188 99.88L39.6468 98.824C40.1908 98.6213 40.6814 98.3547 41.1188 98.024C41.5668 97.6827 41.9508 97.2933 42.2708 96.856C42.6014 96.4187 42.8521 95.944 43.0228 95.432C43.1934 94.92 43.2788 94.3973 43.2788 93.864V92.456ZM43.5188 92.456H44.6228V93.864C44.6228 94.3867 44.7081 94.888 44.8788 95.368C45.0601 95.848 45.3108 96.296 45.6308 96.712C45.9508 97.128 46.3294 97.496 46.7668 97.816C47.2148 98.136 47.7054 98.3867 48.2388 98.568L47.5828 99.624C46.7828 99.3253 46.0734 98.8987 45.4548 98.344C44.8468 97.7787 44.3721 97.112 44.0308 96.344C43.6894 95.576 43.5188 94.7493 43.5188 93.864V92.456ZM41.7108 101.208H51.3748V106.248H50.0468V102.296H41.7108V101.208ZM50.0468 91.768H51.3748V100.472H50.0468V91.768ZM68.5946 91.768H69.9226V100.232H68.5946V91.768ZM69.5546 95.256H72.0506V96.36H69.5546V95.256ZM59.2826 92.584H60.5946V94.792H64.6746V92.584H65.9866V99.336H59.2826V92.584ZM60.5946 95.848V98.264H64.6746V95.848H60.5946ZM60.8666 101.032H70.0346V102.104H62.1946V105.736H60.8666V101.032ZM60.8666 104.968H70.3066V106.04H60.8666V104.968ZM74.8014 93.224H84.1134V94.312H74.8014V93.224ZM73.4094 103.112H86.4814V104.216H73.4094V103.112ZM78.4974 97.944H79.8094V103.672H78.4974V97.944ZM83.6014 93.224H84.9294V94.648C84.9294 95.2453 84.9187 95.8747 84.8974 96.536C84.8867 97.1973 84.844 97.9227 84.7694 98.712C84.7054 99.5013 84.5827 100.381 84.4014 101.352L83.0574 101.192C83.3347 99.8053 83.4947 98.5893 83.5374 97.544C83.58 96.488 83.6014 95.5227 83.6014 94.648V93.224ZM103.109 91.784H104.437V99.816H103.109V91.784ZM96.3413 92.312H97.4453V93.72C97.4453 94.6053 97.2746 95.4373 96.9333 96.216C96.5919 96.984 96.1119 97.656 95.4933 98.232C94.8746 98.7973 94.1546 99.2293 93.3333 99.528L92.6613 98.472C93.2159 98.28 93.7173 98.024 94.1653 97.704C94.6133 97.384 94.9973 97.016 95.3173 96.6C95.6479 96.1733 95.8986 95.7147 96.0693 95.224C96.2506 94.7333 96.3413 94.232 96.3413 93.72V92.312ZM96.5813 92.312H97.6853V93.72C97.6853 94.2213 97.7706 94.7067 97.9413 95.176C98.1226 95.6347 98.3733 96.0613 98.6933 96.456C99.0239 96.8507 99.4133 97.1973 99.8612 97.496C100.309 97.7947 100.8 98.0293 101.333 98.2L100.693 99.256C100.085 99.0533 99.5306 98.7707 99.0293 98.408C98.5279 98.0453 98.0959 97.624 97.7333 97.144C97.3706 96.664 97.0879 96.136 96.8853 95.56C96.6826 94.9733 96.5813 94.36 96.5813 93.72V92.312ZM94.8693 100.68H104.533V101.752H94.8693V100.68ZM94.7413 104.968H104.677V106.056H94.7413V104.968ZM96.8533 101.128H98.1653V105.608H96.8533V101.128ZM101.253 101.128H102.565V105.608H101.253V101.128ZM111.156 92.888C111.86 92.888 112.484 93.096 113.028 93.512C113.572 93.9173 113.993 94.4987 114.292 95.256C114.601 96.0133 114.756 96.904 114.756 97.928C114.756 98.952 114.601 99.8427 114.292 100.6C113.993 101.357 113.572 101.944 113.028 102.36C112.484 102.776 111.86 102.984 111.156 102.984C110.463 102.984 109.839 102.776 109.284 102.36C108.74 101.944 108.313 101.357 108.004 100.6C107.705 99.8427 107.556 98.952 107.556 97.928C107.556 96.904 107.705 96.0133 108.004 95.256C108.313 94.4987 108.74 93.9173 109.284 93.512C109.839 93.096 110.463 92.888 111.156 92.888ZM111.156 94.072C110.697 94.072 110.292 94.232 109.94 94.552C109.588 94.8613 109.311 95.3093 109.108 95.896C108.916 96.472 108.82 97.1493 108.82 97.928C108.82 98.7067 108.916 99.3893 109.108 99.976C109.311 100.552 109.588 101 109.94 101.32C110.292 101.64 110.697 101.8 111.156 101.8C111.625 101.8 112.036 101.64 112.388 101.32C112.74 101 113.012 100.552 113.204 99.976C113.407 99.3893 113.508 98.7067 113.508 97.928C113.508 97.1493 113.407 96.472 113.204 95.896C113.012 95.3093 112.74 94.8613 112.388 94.552C112.036 94.232 111.625 94.072 111.156 94.072ZM117.892 91.768H119.204V106.264H117.892V91.768ZM114.324 97.288H118.484V98.36H114.324V97.288ZM125.235 99.224H126.547V103.544H125.235V99.224ZM130.579 99.224H131.907V103.544H130.579V99.224ZM122.019 103.288H135.139V104.392H122.019V103.288ZM128.547 92.68C129.571 92.68 130.477 92.8347 131.267 93.144C132.056 93.4533 132.675 93.8853 133.123 94.44C133.581 94.9947 133.811 95.6507 133.811 96.408C133.811 97.1547 133.581 97.8107 133.123 98.376C132.675 98.9307 132.056 99.3627 131.267 99.672C130.477 99.9707 129.571 100.12 128.547 100.12C127.533 100.12 126.627 99.9707 125.827 99.672C125.037 99.3627 124.419 98.9307 123.971 98.376C123.523 97.8107 123.299 97.1547 123.299 96.408C123.299 95.6507 123.523 94.9947 123.971 94.44C124.419 93.8853 125.037 93.4533 125.827 93.144C126.627 92.8347 127.533 92.68 128.547 92.68ZM128.547 93.736C127.779 93.736 127.096 93.848 126.499 94.072C125.901 94.296 125.432 94.6107 125.091 95.016C124.749 95.4107 124.579 95.8747 124.579 96.408C124.579 96.9413 124.749 97.4107 125.091 97.816C125.432 98.2107 125.901 98.52 126.499 98.744C127.096 98.968 127.779 99.08 128.547 99.08C129.325 99.08 130.013 98.968 130.611 98.744C131.208 98.52 131.677 98.2107 132.019 97.816C132.36 97.4107 132.531 96.9413 132.531 96.408C132.531 95.8747 132.36 95.4107 132.019 95.016C131.677 94.6107 131.208 94.296 130.611 94.072C130.013 93.848 129.325 93.736 128.547 93.736Z" fill="white" fill-opacity="0.8"/>
<defs>
<linearGradient id="paint0_linear_110_353" x1="79" y1="138" x2="79" y2="0" gradientUnits="userSpaceOnUse">
<stop stop-color="#C6A66F"/>
<stop offset="1" stop-color="#C67C4E"/>
</linearGradient>
</defs>
</svg>
